<svg width="167" height="36" viewBox="0 0 167 36" fill="none" xmlns="http://www.w3.org/2000/svg">
<g clip-path="url(#clip0_13_13)">
<path fill-rule="evenodd" clip-rule="evenodd" d="M31.5444 17.8115C31.5444 25.8339 25.0327 32.3373 17 32.3373C8.96732 32.3373 2.45555 25.8339 2.45555 17.8115C2.45555 9.78909 8.96732 3.28571 17 3.28571C25.0327 3.28571 31.5444 9.78909 31.5444 17.8115ZM34 17.8115C34 27.1884 26.3889 34.7897 17 34.7897C7.61116 34.7897 0 27.1884 0 17.8115C0 8.43472 7.61116 0.833313 17 0.833313C26.3889 0.833313 34 8.43472 34 17.8115ZM26.3794 10.2006C26.3794 11.1707 25.592 11.957 24.6208 11.957C23.6495 11.957 22.8622 11.1707 22.8622 10.2006C22.8622 9.23062 23.6495 8.44428 24.6208 8.44428C25.592 8.44428 26.3794 9.23062 26.3794 10.2006ZM11.8863 19.18C12.643 22.0005 15.5459 23.6743 18.3701 22.9186C21.1942 22.1628 22.8702 19.2636 22.1135 16.4431C21.3568 13.6225 18.4538 11.9487 15.6297 12.7045C12.8055 13.4602 11.1295 16.3594 11.8863 19.18ZM9.51437 19.8147C10.6221 23.9435 14.8715 26.3938 19.0055 25.2875C23.1397 24.1811 25.593 19.9372 24.4853 15.8083C23.3776 11.6796 19.1283 9.22926 14.9941 10.3357C10.86 11.442 8.40664 15.6858 9.51437 19.8147Z" fill="url(#paint0_linear_13_13)"/>
<path d="M52.2969 12.9134C52.1832 11.9048 51.7145 11.1236 50.8906 10.5696C50.0668 10.0085 49.0298 9.72798 47.7798 9.72798C46.8849 9.72798 46.1108 9.87003 45.4574 10.1541C44.804 10.4311 44.2962 10.8146 43.9339 11.3047C43.5788 11.7876 43.4013 12.3381 43.4013 12.956C43.4013 13.4744 43.522 13.9219 43.7635 14.2983C44.0121 14.6747 44.3352 14.9908 44.733 15.2464C45.1378 15.495 45.571 15.7045 46.0327 15.875C46.4943 16.0384 46.9382 16.1733 47.3643 16.2798L49.495 16.8338C50.1911 17.0043 50.9048 17.2351 51.6364 17.5263C52.3679 17.8175 53.0462 18.201 53.6712 18.6768C54.2962 19.1527 54.8004 19.7422 55.1839 20.4453C55.5746 21.1484 55.7699 21.9901 55.7699 22.9702C55.7699 24.206 55.4503 25.3033 54.8111 26.2621C54.179 27.2209 53.2592 27.9773 52.0518 28.5312C50.8516 29.0852 49.3991 29.3622 47.6946 29.3622C46.0611 29.3622 44.6477 29.103 43.4545 28.5845C42.2614 28.0661 41.3274 27.331 40.6527 26.3793C39.978 25.4205 39.6051 24.2841 39.5341 22.9702H42.8366C42.9006 23.7585 43.1563 24.4155 43.6037 24.9411C44.0582 25.4595 44.6371 25.8466 45.3402 26.1023C46.0504 26.3509 46.8281 26.4751 47.6733 26.4751C48.6037 26.4751 49.4311 26.3295 50.1555 26.0384C50.8871 25.7401 51.4624 25.3281 51.8814 24.8026C52.3004 24.2699 52.5099 23.6484 52.5099 22.9382C52.5099 22.2919 52.3253 21.7628 51.956 21.3509C51.5938 20.9389 51.1001 20.598 50.4751 20.3281C49.8572 20.0582 49.1577 19.8203 48.3764 19.6143L45.7983 18.9112C44.0511 18.4354 42.6662 17.7358 41.6435 16.8125C40.6278 15.8892 40.12 14.6676 40.12 13.1477C40.12 11.8906 40.4609 10.7933 41.1428 9.85582C41.8246 8.91832 42.7479 8.19034 43.9126 7.67188C45.0774 7.14631 46.3913 6.88352 47.8544 6.88352C49.3317 6.88352 50.6349 7.14276 51.7642 7.66122C52.9006 8.17969 53.7955 8.89347 54.4489 9.80256C55.1023 10.7045 55.4432 11.7415 55.4716 12.9134H52.2969ZM62.6333 19.2841V29H59.448V12.6364H62.5055V15.2997H62.7079C63.0843 14.4332 63.6738 13.7372 64.4764 13.2116C65.286 12.6861 66.3052 12.4233 67.5339 12.4233C68.649 12.4233 69.6255 12.6577 70.4636 13.1264C71.3017 13.5881 71.9515 14.277 72.4132 15.1932C72.8748 16.1094 73.1056 17.2422 73.1056 18.5916V29H69.9203V18.9751C69.9203 17.7891 69.6113 16.8622 68.9934 16.1946C68.3755 15.5199 67.5268 15.1825 66.4473 15.1825C65.7086 15.1825 65.0517 15.3423 64.4764 15.6619C63.9082 15.9815 63.4572 16.4503 63.1234 17.0682C62.7967 17.679 62.6333 18.4176 62.6333 19.2841ZM82.1397 29.3622C81.1028 29.3622 80.1653 29.1705 79.3272 28.7869C78.4892 28.3963 77.8251 27.8317 77.335 27.093C76.8521 26.3544 76.6106 25.4489 76.6106 24.3764C76.6106 23.4531 76.7882 22.6932 77.1433 22.0966C77.4984 21.5 77.9778 21.0277 78.5815 20.6797C79.1852 20.3317 79.8599 20.0689 80.6056 19.8913C81.3514 19.7138 82.1113 19.5788 82.8855 19.4865C83.8656 19.3729 84.661 19.2805 85.2718 19.2095C85.8826 19.1314 86.3265 19.0071 86.6035 18.8366C86.8805 18.6662 87.019 18.3892 87.019 18.0057V17.9311C87.019 17.0007 86.7562 16.2798 86.2306 15.7685C85.7122 15.2571 84.938 15.0014 83.9082 15.0014C82.8358 15.0014 81.9906 15.2393 81.3727 15.7152C80.7619 16.1839 80.3393 16.706 80.1049 17.2812L77.1113 16.5994C77.4664 15.6051 77.9849 14.8026 78.6667 14.1918C79.3556 13.5739 80.1475 13.1264 81.0424 12.8494C81.9373 12.5653 82.8784 12.4233 83.8656 12.4233C84.519 12.4233 85.2115 12.5014 85.943 12.6577C86.6816 12.8068 87.3706 13.0838 88.0098 13.4886C88.6561 13.8935 89.1852 14.4723 89.5971 15.2251C90.0091 15.9709 90.215 16.9403 90.215 18.1335V29H87.1042V26.7628H86.9764C86.7704 27.1747 86.4615 27.5795 86.0495 27.9773C85.6376 28.375 85.1085 28.7053 84.4622 28.968C83.8159 29.2308 83.0417 29.3622 82.1397 29.3622ZM82.8322 26.8054C83.7129 26.8054 84.4657 26.6314 85.0907 26.2834C85.7228 25.9354 86.2022 25.4808 86.5289 24.9197C86.8627 24.3516 87.0297 23.7443 87.0297 23.098V20.9886C86.916 21.1023 86.6958 21.2088 86.3691 21.3082C86.0495 21.4006 85.6838 21.4822 85.2718 21.5533C84.8599 21.6172 84.4586 21.6776 84.068 21.7344C83.6774 21.7841 83.3507 21.8267 83.0879 21.8622C82.47 21.9403 81.9054 22.0717 81.394 22.2564C80.8897 22.4411 80.4849 22.7074 80.1795 23.0554C79.8812 23.3963 79.7321 23.8509 79.7321 24.419C79.7321 25.2074 80.0233 25.804 80.6056 26.2088C81.188 26.6065 81.9302 26.8054 82.8322 26.8054ZM94.4577 35.1364V12.6364H97.5685V15.2891H97.8349C98.0195 14.9482 98.2859 14.554 98.6339 14.1065C98.9819 13.6591 99.4648 13.2685 100.083 12.9347C100.701 12.5938 101.517 12.4233 102.533 12.4233C103.854 12.4233 105.033 12.7571 106.07 13.4247C107.107 14.0923 107.92 15.0547 108.51 16.3118C109.106 17.5689 109.404 19.0817 109.404 20.8501C109.404 22.6186 109.11 24.1349 108.52 25.3991C107.931 26.6562 107.121 27.6257 106.091 28.3075C105.061 28.9822 103.886 29.3196 102.565 29.3196C101.571 29.3196 100.757 29.1527 100.125 28.8189C99.5004 28.4851 99.0103 28.0945 98.6552 27.647C98.3001 27.1996 98.0266 26.8018 97.8349 26.4538H97.6431V35.1364H94.4577ZM97.5792 20.8182C97.5792 21.9687 97.7461 22.9773 98.0799 23.8438C98.4137 24.7102 98.8967 25.3885 99.5288 25.8786C100.161 26.3615 100.935 26.603 101.851 26.603C102.803 26.603 103.598 26.3509 104.238 25.8466C104.877 25.3352 105.36 24.6428 105.686 23.7692C106.02 22.8956 106.187 21.9119 106.187 20.8182C106.187 19.7386 106.024 18.7692 105.697 17.9098C105.377 17.0504 104.895 16.3722 104.248 15.875C103.609 15.3778 102.81 15.1293 101.851 15.1293C100.928 15.1293 100.147 15.3672 99.5075 15.843C98.8754 16.3189 98.396 16.983 98.0692 17.8352C97.7425 18.6875 97.5792 19.6818 97.5792 20.8182ZM120.292 29H113.229V7.18182H120.516C122.654 7.18182 124.49 7.61861 126.024 8.49219C127.558 9.35866 128.733 10.6051 129.55 12.2315C130.374 13.8509 130.786 15.7933 130.786 18.0589C130.786 20.3317 130.37 22.2848 129.539 23.9183C128.716 25.5518 127.522 26.8089 125.96 27.6896C124.397 28.5632 122.508 29 120.292 29ZM116.521 26.1236H120.111C121.773 26.1236 123.154 25.8111 124.255 25.1861C125.356 24.554 126.18 23.6413 126.727 22.4482C127.274 21.2479 127.547 19.7848 127.547 18.0589C127.547 16.3473 127.274 14.8949 126.727 13.7017C126.187 12.5085 125.381 11.603 124.309 10.9851C123.236 10.3672 121.904 10.0582 120.314 10.0582H116.521V26.1236ZM141.676 29.3303C140.064 29.3303 138.676 28.9858 137.511 28.2969C136.353 27.6009 135.458 26.6243 134.826 25.3672C134.201 24.103 133.889 22.6222 133.889 20.9247C133.889 19.2486 134.201 17.7713 134.826 16.4929C135.458 15.2145 136.339 14.2166 137.468 13.4993C138.605 12.782 139.933 12.4233 141.453 12.4233C142.376 12.4233 143.271 12.576 144.137 12.8814C145.004 13.1868 145.781 13.6662 146.47 14.3196C147.159 14.973 147.703 15.8217 148.1 16.8658C148.498 17.9027 148.697 19.1634 148.697 20.6477V21.777H135.689V19.3906H145.575C145.575 18.5526 145.405 17.8104 145.064 17.1641C144.723 16.5107 144.244 15.9957 143.626 15.6193C143.015 15.2429 142.298 15.0547 141.474 15.0547C140.579 15.0547 139.798 15.2749 139.13 15.7152C138.47 16.1484 137.958 16.7166 137.596 17.4197C137.241 18.1158 137.063 18.8722 137.063 19.6889V21.5533C137.063 22.647 137.255 23.5774 137.639 24.3445C138.029 25.1115 138.573 25.6974 139.269 26.1023C139.965 26.5 140.778 26.6989 141.708 26.6989C142.312 26.6989 142.862 26.6136 143.36 26.4432C143.857 26.2656 144.286 26.0028 144.649 25.6548C145.011 25.3068 145.288 24.8771 145.48 24.3658L148.494 24.9091C148.253 25.7969 147.82 26.5746 147.195 27.2422C146.577 27.9027 145.799 28.4176 144.862 28.7869C143.931 29.1491 142.869 29.3303 141.676 29.3303ZM165.761 12.6364L159.827 29H156.418L150.473 12.6364H153.893L158.037 25.2287H158.208L162.341 12.6364H165.761Z" fill="white"/>
</g>
<defs>
<linearGradient id="paint0_linear_13_13" x1="17" y1="0.833313" x2="17" y2="34.7897" gradientUnits="userSpaceOnUse">
<stop stop-color="#877EFF"/>
<stop offset="0.461458" stop-color="#685DFF"/>
<stop offset="1" stop-color="#3121FF"/>
</linearGradient>
<clipPath id="clip0_13_13">
<rect width="167" height="36" fill="white"/>
</clipPath>
</defs>
</svg>
